<?xml version="1.0" encoding="utf-8"?>
<!-- Generator: Adobe Illustrator 26.2.1, SVG Export Plug-In . SVG Version: 6.00 Build 0)  -->
<svg version="1.1" id="Слой_1" xmlns:xodm="http://www.corel.com/coreldraw/odm/2003"
	 xmlns="http://www.w3.org/2000/svg" xmlns:xlink="http://www.w3.org/1999/xlink" x="0px" y="0px" viewBox="0 0 423.3 438.8"
	 style="enable-background:new 0 0 423.3 438.8;" xml:space="preserve">
<style type="text/css">
	.st0{fill:#EAF4FD;}
</style>
<path id="path22" class="st0" d="M314.3,261.1c-76.4,0.4-88.8,48.1-92.9,88.5l-1.9,17.8h-15.4l-1.9-17.8
	c-4.1-40.3-16.9-88.1-90.6-88.5C99.3,234.7,94,213.4,94,189.3c0-60.1,47.6-116.4,118-116.4c70.4,0,117.2,55.9,117.2,116.8
	C329.3,213.4,327,234.7,314.3,261.1L314.3,261.1L314.3,261.1z M211.3,0C95.1,0,0,98.5,0,219.2c0,121,95.1,219.6,211.3,219.6
	c117.2,0,212-98.5,212-219.6C423.3,98.5,328.5,0,211.3,0L211.3,0z"/>
</svg>
