<?xml version="1.0" encoding="UTF-8"?>
<svg id="Layer_1" data-name="Layer 1" xmlns="http://www.w3.org/2000/svg" viewBox="0 0 49.58 50">
  <defs>
    <style>
      .cls-1 {
        fill: #fff;
      }

      .cls-2 {
        fill: #6dcef5;
      }
    </style>
  </defs>
  <path class="cls-2" d="M12.82,2.15c9.18-4.14,16.55-1.26,21.77,0s11.51,5.58,13.31,9.9c1.8,4.32,3.96,14.03-4.14,25.73-8.1,11.69-17.81,13.31-21.59,11.69C18.39,47.85,.94,38.67,.04,25-.86,11.33,12.82,2.15,12.82,2.15Z"/>
  <g>
    <path class="cls-1" d="M17.94,23.39c-2.84,0-5.15-2.31-5.15-5.15s2.31-5.15,5.15-5.15,5.15,2.31,5.15,5.15-2.31,5.15-5.15,5.15Zm0-6.58c-.79,0-1.43,.64-1.43,1.43s.64,1.43,1.43,1.43,1.43-.64,1.43-1.43-.64-1.43-1.43-1.43Z"/>
    <path class="cls-1" d="M31.64,36.98c-2.84,0-5.15-2.31-5.15-5.15s2.31-5.15,5.15-5.15,5.15,2.31,5.15,5.15-2.31,5.15-5.15,5.15Zm0-6.58c-.79,0-1.43,.64-1.43,1.43s.64,1.43,1.43,1.43,1.43-.64,1.43-1.43-.64-1.43-1.43-1.43Z"/>
    <polygon class="cls-1" points="18.26 36.98 13.63 36.98 31.38 13.02 36 13.02 18.26 36.98"/>
  </g>
</svg>