<?xml version="1.0" encoding="UTF-8"?>
<svg id="Layer_1" data-name="Layer 1" xmlns="http://www.w3.org/2000/svg" viewBox="0 0 50 49.67">
  <defs>
    <style>
      .cls-1 {
        fill: #fff;
      }

      .cls-2 {
        fill: #6dcef5;
      }
    </style>
  </defs>
  <path class="cls-2" d="M7.19,11.27c3.72-3.14,10.53-7.05,12.03-8,2.41-1.54,4.82-3.27,6.22-3.27,2.71,0,5.35,1.16,9.06,4.88,3.72,3.72,6.66,7.38,8.99,10.63,2.32,3.25,5.79,8.1,6.24,9.47,.87,2.67,.12,9.18-8.48,15.92-8.6,6.74-15.05,9.68-20.05,8.51s-9.7-8.75-14.93-15.72C1.03,26.73-.2,25.1,.02,21.69c.31-4.8,7.17-10.42,7.17-10.42Z"/>
  <g>
    <path class="cls-1" d="M18.15,23.22c-2.84,0-5.15-2.31-5.15-5.15s2.31-5.15,5.15-5.15,5.15,2.31,5.15,5.15-2.31,5.15-5.15,5.15Zm0-6.58c-.79,0-1.43,.64-1.43,1.43s.64,1.43,1.43,1.43,1.43-.64,1.43-1.43-.64-1.43-1.43-1.43Z"/>
    <path class="cls-1" d="M31.85,36.81c-2.84,0-5.15-2.31-5.15-5.15s2.31-5.15,5.15-5.15,5.15,2.31,5.15,5.15-2.31,5.15-5.15,5.15Zm0-6.58c-.79,0-1.43,.64-1.43,1.43s.64,1.43,1.43,1.43,1.43-.64,1.43-1.43-.64-1.43-1.43-1.43Z"/>
    <polygon class="cls-1" points="18.47 36.82 13.84 36.82 31.58 12.85 36.21 12.85 18.47 36.82"/>
  </g>
</svg>