<?xml version="1.0" encoding="UTF-8"?>
<svg id="Layer_1" data-name="Layer 1" xmlns="http://www.w3.org/2000/svg" viewBox="0 0 50 48.59">
  <defs>
    <style>
      .cls-1 {
        fill: #fff;
      }

      .cls-2 {
        fill: #6dcef5;
      }
    </style>
  </defs>
  <path class="cls-2" d="M.14,27.63C-.72,21.56,2.26,14.95,14.09,7.47,25.91,0,32.66-1.76,37.88,1.72s5.6,5.93,9.08,15.15c3.48,9.22,5.88,25.38-3.86,30.07-9.74,4.7-20.31-1.55-29.88-6.77S.77,32.12,.14,27.63Z"/>
  <g>
    <path class="cls-1" d="M20.15,22.68c-2.84,0-5.15-2.31-5.15-5.15s2.31-5.15,5.15-5.15,5.15,2.31,5.15,5.15-2.31,5.15-5.15,5.15Zm0-6.58c-.79,0-1.43,.64-1.43,1.43s.64,1.43,1.43,1.43,1.43-.64,1.43-1.43-.64-1.43-1.43-1.43Z"/>
    <path class="cls-1" d="M33.85,36.28c-2.84,0-5.15-2.31-5.15-5.15s2.31-5.15,5.15-5.15,5.15,2.31,5.15,5.15-2.31,5.15-5.15,5.15Zm0-6.58c-.79,0-1.43,.64-1.43,1.43s.64,1.43,1.43,1.43,1.43-.64,1.43-1.43-.64-1.43-1.43-1.43Z"/>
    <polygon class="cls-1" points="20.47 36.28 15.84 36.28 33.58 12.31 38.21 12.31 20.47 36.28"/>
  </g>
</svg>