<?xml version="1.0" encoding="UTF-8"?>
<svg id="Layer_1" data-name="Layer 1" xmlns="http://www.w3.org/2000/svg" viewBox="0 0 94.62 90.27">
  <defs>
    <style>
      .cls-1 {
        fill: #fff;
      }

      .cls-2 {
        fill: #ec3752;
      }
    </style>
  </defs>
  <path class="cls-1" d="M60.53,86.34l-32.73,3.76C12.68,91.84-.47,79.74,.01,64.52L1.28,24.19C1.81,7.45,18.35-4.03,34.22,1.33l43.43,14.68c14.7,4.97,21.35,22,13.91,35.61l-11.97,21.9c-3.89,7.11-10.99,11.89-19.05,12.82Z"/>
  <g>
    <path class="cls-2" d="M80.19,53.01h-5.17V21.97h-27.4v1.54c0,2.89-.05,5.65-.14,8.28-.1,2.63-.34,5.18-.75,7.66-.4,2.47-.99,4.91-1.79,7.31-.8,2.4-1.57,3.84-2.98,6.27h-4.8v15.29h10.83v-6.33h23.04v6.33h5.44c2.95,0,5.35-2.39,5.35-5.35v-8.32c0-.9-.73-1.62-1.62-1.62Zm-16.35,0h-11.4c.95-1.71,1.41-2.58,2.03-4.58,.63-2,1.14-4.06,1.52-6.17,.38-2.12,.67-4.25,.85-6.43,.13-1.55,.25-2.4,.32-3.51,.06-.85,.76-1.52,1.61-1.52h5.05v22.2Z"/>
    <path class="cls-2" d="M34.78,58.51v9.71h-10.82v-6.27H2.8v-8.95l15.52-31.04h12.52l-15.27,31.04h8.74v-8.71h10.48v14.21Z"/>
  </g>
</svg>