<?xml version="1.0" encoding="UTF-8"?><svg id="Layer_1" xmlns="http://www.w3.org/2000/svg" viewBox="0 0 393.46 35.39"><defs><style>.cls-1{fill:#fff;}.cls-2{fill:#ec3752;}.cls-3{fill:#00599d;}.cls-4{fill:#00b8f1;}</style></defs><g><polygon class="cls-3" points="128.1 3.42 128.1 31.15 120.69 31.15 120.69 10.22 113.21 10.22 113.21 31.15 105.8 31.15 105.8 3.42 128.1 3.42"/><path class="cls-3" d="M181.29,3.42V31.15h-7.41V10.22h-4.35c-.07,1.38-.14,2.76-.23,4.14-.11,1.7-.31,3.38-.59,4.98-.29,1.62-.7,3.15-1.22,4.57-.56,1.47-1.33,2.78-2.3,3.9-.97,1.14-2.21,2.07-3.67,2.74-1.44,.65-3.2,1.04-5.25,1.12l-.83,.04h-.29c.4-.34,.77-.67,1.13-1.04,1.56-1.62,2.63-3.73,3.51-5.99,1.13-2.95,2.1-8.17,2.32-10.77,.2-2.31,.29-4.83,.34-7.65,0-.19,.02-.36,.02-.54t0-.04c.18-1.29,1.24-2.26,2.52-2.26,0,0,16.3,0,16.3,0Z"/><path class="cls-3" d="M258.33,3.42V31.15h-7.41V10.22h-4.35c-.07,1.38-.14,2.76-.23,4.14-.11,1.7-.31,3.38-.59,4.98-.29,1.62-.7,3.15-1.22,4.57-.56,1.47-1.33,2.78-2.3,3.9-.97,1.14-2.06,1.71-3.52,2.38-1.44,.65-3.48,.86-5.53,.94l-.83,.04h-.29c.09-.07,.18-.15,.25-.22,.31-.26,.59-.52,.88-.82,1.56-1.62,2.75-3.19,3.63-5.45,.49-1.25,.94-2.93,1.31-4.63,0-.04,.02-.09,.04-.15,.43-2,.77-4.03,.92-5.47,.02-.17,.04-.35,.05-.52,.05-.58,.09-1.16,.13-1.77,.04-.62,.07-1.23,.11-1.87,.04-1.27,.07-2.59,.11-4.01,0-.19,.02-.36,.02-.54t0-.04s.02-.02,.02-.04c.18-1.27,1.24-2.22,2.5-2.22,0,0,16.3,0,16.3,0Z"/><path class="cls-3" d="M208.48,3.42V31.15h-7.34V15.87c-1.49,1.94-2.95,3.97-4.32,6.1-1.85,2.85-3.6,5.78-5.18,8.71l-.27,.47h-6.13V3.42h7.37v13.15c.38-.56,.76-1.12,1.13-1.7,.99-1.46,2-2.87,2.99-4.24,1.01-1.38,2-2.65,2.97-3.86,.95-1.21,1.87-2.24,2.68-3.08l.25-.28h5.85Z"/><path class="cls-3" d="M232.35,31.17l-4.82-.02-.25-.45c-.5-.82-1.08-1.7-1.76-2.67-.67-.95-1.4-1.92-2.18-2.91-.77-.97-1.58-1.9-2.43-2.78-.36-.37-.7-.73-1.06-1.06v9.87h-7.41V3.42h7.41V11.72c.94-1.04,1.87-2.11,2.82-3.21,1.49-1.72,2.86-3.3,4.12-4.78l.27-.32h8.99l-1.24,1.53c-1.69,2.09-3.42,4.14-5.14,6.08-1.49,1.68-3.09,3.41-4.75,5.15,1.76,1.62,3.49,3.49,5.14,5.62,1.85,2.37,3.67,5.04,5.41,7.93l-3.12,1.45Z"/><path class="cls-3" d="M285.52,3.42V31.15h-7.34V15.87c-1.51,1.94-2.95,3.97-4.33,6.1-1.83,2.85-3.58,5.78-5.18,8.71l-.25,.47h-6.13V3.42h7.37v13.15c.36-.56,.74-1.12,1.13-1.7,.99-1.46,1.98-2.87,2.98-4.24,1.01-1.38,2-2.65,2.95-3.86,.97-1.21,1.89-2.24,2.7-3.08l.25-.28h5.85Z"/><polygon class="cls-3" points="311.91 3.42 311.91 31.15 304.51 31.15 304.51 20.18 296.88 20.18 296.88 31.15 289.47 31.15 289.47 3.42 296.88 3.42 296.88 13.31 304.51 13.31 304.51 3.42 311.91 3.42"/><path class="cls-3" d="M339.1,3.42V31.15h-7.34V15.87c-1.51,1.94-2.95,3.97-4.33,6.1-1.84,2.85-3.58,5.78-5.18,8.71l-.25,.47h-6.13V3.42h7.37v13.15c.36-.56,.74-1.12,1.13-1.7,.99-1.46,1.98-2.87,2.99-4.24,1.01-1.38,2-2.65,2.95-3.86,.97-1.21,1.89-2.24,2.7-3.08l.25-.28h5.84Z"/><path class="cls-3" d="M366.94,31.15h-8.79l-.25-.45c-.5-.82-1.08-1.7-1.76-2.67-.67-.95-1.4-1.92-2.18-2.91-.77-.97-1.6-1.9-2.43-2.78-.36-.37-.72-.73-1.06-1.06v9.87h-7.41V3.42h7.41V11.72c.94-1.04,1.87-2.11,2.82-3.21,1.49-1.72,2.86-3.3,4.12-4.78l.27-.32h8.99l-1.24,1.53c-1.69,2.09-3.42,4.14-5.14,6.08-1.49,1.68-3.09,3.41-4.77,5.15,1.78,1.62,3.51,3.49,5.16,5.62,1.85,2.37,3.67,5.04,5.39,7.93l.87,1.43Z"/><path class="cls-3" d="M393.03,29.9c-.93-2.78-1.83-5.36-2.68-7.72s-1.67-4.61-2.48-6.72c-.81-2.09-1.62-4.09-2.41-5.97-.81-1.88-1.62-3.73-2.43-5.52l-.25-.54h-6.46l-.23,.52c-.84,1.79-1.67,3.66-2.46,5.54-.77,1.88-1.58,3.88-2.39,5.97-.81,2.11-1.64,4.35-2.48,6.72s-1.73,4.94-2.66,7.74l-.43,1.23h7.77l.2-.65c.27-.88,.56-1.79,.86-2.74l.74-2.2h8.45l.76,2.2c.31,.93,.61,1.87,.88,2.74l.2,.65h7.93l-.43-1.25Zm-14.13-15.58c.2-.56,.4-1.06,.56-1.53l.58,1.53c.32,.84,.66,1.77,1.01,2.78,.23,.64,.45,1.29,.68,1.96h-4.57c.25-.67,.49-1.31,.72-1.94,.37-1.01,.71-1.96,1.02-2.8Z"/><path class="cls-3" d="M156.55,11.07c-.68-1.77-1.65-3.32-2.86-4.55-1.2-1.23-2.66-2.16-4.28-2.78-3.17-1.19-6.94-1.23-10.16,0-1.62,.62-3.06,1.55-4.28,2.78s-2.19,2.76-2.91,4.55-1.08,3.86-1.08,6.19,.34,4.4,1.04,6.19c.68,1.79,1.66,3.32,2.86,4.53,1.22,1.21,2.66,2.15,4.28,2.76,1.6,.62,3.33,.91,5.13,.91s3.6-.3,5.21-.91c1.64-.62,3.07-1.55,4.26-2.76,1.19-1.23,2.14-2.76,2.82-4.55,.67-1.77,1.01-3.86,1.01-6.18s-.34-4.39-1.04-6.18Zm-9.86,13.12c-1.42,.67-3.47,.65-4.84,0-.68-.34-1.28-.82-1.74-1.44-.49-.63-.86-1.42-1.13-2.33s-.41-1.98-.41-3.15,.14-2.2,.41-3.15c.27-.91,.65-1.7,1.13-2.33,.49-.62,1.06-1.1,1.76-1.46,.68-.35,1.49-.52,2.41-.52s1.71,.17,2.41,.5c.7,.35,1.28,.82,1.76,1.44,.49,.63,.86,1.44,1.13,2.33,.27,.95,.41,2.02,.41,3.19s-.14,2.24-.41,3.15-.65,1.7-1.13,2.33c-.46,.62-1.06,1.1-1.76,1.44Z"/></g><g><path class="cls-4" d="M34.13,9.52V25.86c0,.06,0,.12-.02,.17,0,.06-.04,.1-.07,.15-.02,.03-.04,.06-.07,.09-.1,.1-.24,.17-.39,.17h-7.54c-.3,0-.55,.26-.55,.57v7.81c0,.32-.24,.57-.55,.57H9.18c-.3,0-.55-.25-.55-.57v-7.81c0-.32-.24-.57-.55-.57H.55c-.3,0-.55-.25-.55-.57V9.52c0-.32,.24-.57,.55-.57h7.53c.31,0,.55-.25,.55-.57V.57c0-.31,.25-.57,.55-.57h15.76c.31,0,.55,.26,.55,.57v7.81c0,.32,.24,.57,.55,.57h7.54c.15,0,.29,.06,.39,.17,.03,.03,.05,.05,.07,.09,.03,.05,.06,.09,.07,.15,.01,.05,.02,.11,.02,.16Z"/><circle class="cls-1" cx="17.06" cy="17.26" r="7.65"/><path class="cls-3" d="M45.81,8.98c-.41,2.97-1.79,5.7-3.8,7.73-.07,.07-.15,.16-.23,.23-.28,.28-.58,.54-.89,.78-.06,.05-.12,.09-.18,.14-1.41,1.05-3.14,1.79-5.02,2.14-.75,.14-1.42,.21-2.22,.21-3.93,0-5.17-1.72-7.19-2.45-.55-.32-1.19-.49-1.87-.5h-.01c-.15,0-.3,.01-.45,.03-.09,.01-.18,.02-.27,.04-.07,.02-.14,.03-.22,.05-1.32,.33-2.36,1.34-2.73,2.64-.02,.05-.03,.11-.04,.17h-7.72s.13-1.34,.44-2.43c.81-2.93,3.1-5.33,6.11-6.61,.8-.34,1.64-.59,2.53-.76,.75-.14,1.53-.21,2.33-.21,3.65,0,5.54,1.7,7.39,2.43,.01,.01,.02,.01,.03,.01,.21,.09,.42,.16,.64,.21,.07,.02,.15,.03,.22,.05,.11,.03,.22,.04,.33,.05,.12,.02,.24,.02,.36,.02,.11,0,.22-.01,.34-.02,.1-.01,.2-.02,.29-.04,.1-.02,.2-.04,.3-.06,.04-.01,.08-.02,.12-.04,1.27-.35,2.27-1.35,2.63-2.62,.1-.33,.14-.74,.14-1.1,0-.04,0-.07,0-.11h8.65v.02Z"/><path class="cls-2" d="M28.22,21.09c0,2.11-1.71,3.83-3.83,3.83s-3.82-1.71-3.82-3.83c0-.31,.04-.61,.11-.89,.01-.06,.03-.11,.04-.17,.37-1.3,1.41-2.32,2.73-2.64,.07-.02,.14-.04,.22-.05,.09-.02,.18-.03,.27-.04,.15-.02,.3-.03,.45-.03h.01c.68,.01,1.32,.18,1.87,.5,1.16,.64,1.95,1.89,1.95,3.32Z"/></g><g><path class="cls-2" d="M98.52,24.84h-3.57V3.41h-18.9v1.06c0,2-.04,3.9-.1,5.71-.07,1.82-.24,3.58-.52,5.28-.27,1.71-.69,3.39-1.24,5.04-.55,1.66-1.08,2.65-2.06,4.32h-3.31v10.55h7.48v-4.37h15.9v4.37h3.76c2.04,0,3.69-1.65,3.69-3.69v-5.74c-.01-.6-.51-1.1-1.13-1.1Zm-11.28,0h-7.86c.66-1.18,.97-1.78,1.4-3.16s.78-2.8,1.05-4.26c.26-1.46,.46-2.94,.59-4.44,.09-1.07,.17-1.66,.22-2.42,.04-.59,.53-1.05,1.11-1.05h3.49v15.33Z"/><path class="cls-2" d="M67.19,28.63v6.7h-7.47v-4.32h-14.6v-6.17L55.82,3.41h8.64l-10.53,21.43h6.03v-6.01h7.23v9.8Z"/></g></svg>