<svg version="1.1" id="Layer_1" xmlns="http://www.w3.org/2000/svg" x="0" y="0" viewBox="0 0 188.55 96.17" style="enable-background:new 0 0 188.55 96.17" xml:space="preserve"><style>.st0{fill:#00599d}.st1{fill:#ec3752}</style><path class="st0" d="M14.62 77.63v18.18H9.76V82.08h-4.9v13.73H0V77.63zM49.48 77.63V95.8h-4.86V82.08h-2.85c-.05.9-.09 1.81-.15 2.71-.07 1.11-.2 2.21-.39 3.27s-.46 2.07-.8 3a8.49 8.49 0 0 1-1.51 2.56c-.64.75-1.45 1.36-2.4 1.8-.94.43-2.1.68-3.44.73l-.54.02h-.19c.26-.22.51-.44.74-.68 1.03-1.06 1.72-2.45 2.3-3.93.74-1.93 1.38-5.36 1.52-7.06.13-1.52.19-3.17.22-5.01 0-.12.01-.23.01-.35-.01-.01-.01-.01 0-.02.12-.84.81-1.48 1.65-1.48h10.69zM99.98 77.63V95.8h-4.86V82.08h-2.85c-.05.9-.09 1.81-.15 2.71-.07 1.11-.2 2.21-.39 3.27s-.46 2.07-.8 3a8.49 8.49 0 0 1-1.51 2.56c-.64.75-1.35 1.12-2.3 1.56-.94.43-2.28.57-3.62.61l-.54.02h-.19c.06-.05.12-.1.17-.15.2-.17.39-.34.58-.54 1.03-1.06 1.8-2.09 2.38-3.57.32-.82.61-1.92.86-3.03 0-.02.01-.06.02-.1.28-1.31.51-2.64.6-3.58.01-.11.02-.23.04-.34.04-.38.06-.76.08-1.16.02-.4.05-.81.07-1.22.02-.83.05-1.7.07-2.63 0-.12.01-.23.01-.35.01-.01.01-.01 0-.02.01-.01.01-.01.01-.02.12-.83.81-1.46 1.64-1.46h10.68zM67.31 77.63V95.8H62.5V85.79c-.98 1.27-1.93 2.61-2.83 4a81.554 81.554 0 0 0-3.39 5.71l-.18.31h-4.02V77.63h4.83v8.62c.25-.37.49-.73.74-1.11.65-.95 1.31-1.88 1.96-2.78.66-.9 1.31-1.74 1.94-2.53.63-.79 1.23-1.47 1.76-2.02l.16-.18h3.84z"/><path class="st0" d="m82.95 95.82-3.16-.01-.17-.29c-.33-.54-.71-1.11-1.16-1.75-.44-.62-.92-1.26-1.43-1.91-.51-.64-1.04-1.25-1.59-1.82-.24-.24-.46-.48-.7-.7v6.47H69.9V77.63h4.86v5.44c.61-.68 1.23-1.38 1.85-2.1.98-1.13 1.87-2.16 2.7-3.13l.18-.21h5.89l-.81 1c-1.11 1.37-2.24 2.72-3.37 3.99-.98 1.1-2.03 2.24-3.11 3.38 1.16 1.06 2.29 2.29 3.37 3.68 1.21 1.55 2.4 3.3 3.55 5.2l-2.06.94zM117.81 77.63V95.8H113V85.79c-.99 1.27-1.93 2.61-2.84 4-1.2 1.87-2.35 3.79-3.39 5.71l-.17.31h-4.02V77.63h4.83v8.62c.24-.37.48-.73.74-1.11.65-.95 1.3-1.88 1.96-2.78.66-.9 1.31-1.74 1.93-2.53.64-.79 1.24-1.47 1.77-2.02l.17-.18h3.83zM135.11 77.63v18.18h-4.86v-7.19h-5v7.19h-4.85V77.63h4.85v6.48h5v-6.48zM152.93 77.63V95.8h-4.81V85.79c-.99 1.27-1.93 2.61-2.84 4-1.2 1.87-2.35 3.79-3.4 5.71l-.17.31h-4.02V77.63h4.83v8.62c.24-.37.48-.73.74-1.11.65-.95 1.3-1.88 1.96-2.78.66-.9 1.31-1.74 1.93-2.53.64-.79 1.24-1.47 1.77-2.02l.17-.18h3.84zM171.18 95.81h-5.76l-.16-.29c-.33-.54-.71-1.11-1.16-1.75-.44-.62-.92-1.26-1.43-1.91a28.37 28.37 0 0 0-1.59-1.82c-.24-.24-.47-.48-.7-.7v6.47h-4.86V77.63h4.86v5.44c.61-.68 1.23-1.38 1.85-2.1.98-1.13 1.87-2.16 2.7-3.13l.18-.21H171l-.81 1c-1.11 1.37-2.24 2.72-3.37 3.99-.98 1.1-2.03 2.24-3.12 3.38 1.17 1.06 2.3 2.29 3.38 3.68 1.21 1.55 2.4 3.3 3.54 5.2l.56.93z"/><path class="st0" d="M188.28 94.99c-.61-1.82-1.2-3.51-1.76-5.06-.55-1.55-1.1-3.02-1.63-4.4-.53-1.37-1.06-2.68-1.58-3.91-.53-1.24-1.06-2.45-1.59-3.62l-.17-.35h-4.23l-.15.34c-.55 1.17-1.1 2.4-1.61 3.63-.51 1.24-1.04 2.54-1.57 3.91-.53 1.38-1.07 2.85-1.63 4.4-.55 1.55-1.13 3.24-1.74 5.08l-.28.81h5.09l.13-.43.57-1.8.48-1.44h5.54l.49 1.44c.2.61.4 1.22.58 1.8l.13.43h5.2l-.27-.83zm-9.26-10.22c.13-.37.26-.7.37-1l.38 1c.21.55.44 1.16.66 1.82.15.42.29.84.45 1.28h-2.99c.16-.44.32-.86.47-1.27.23-.65.46-1.27.66-1.83zM33.26 82.65c-.45-1.16-1.08-2.18-1.87-2.98a7.62 7.62 0 0 0-2.81-1.82c-2.07-.78-4.55-.81-6.66 0-1.06.4-2 1.02-2.81 1.82-.8.81-1.44 1.81-1.91 2.98s-.71 2.53-.71 4.06c0 1.53.22 2.89.68 4.06.45 1.17 1.08 2.18 1.87 2.97.8.79 1.74 1.41 2.81 1.81 1.05.4 2.18.6 3.36.6 1.21 0 2.36-.2 3.42-.6 1.07-.4 2.02-1.02 2.79-1.81.78-.81 1.4-1.81 1.85-2.98.44-1.16.66-2.53.66-4.05.02-1.53-.21-2.89-.67-4.06zm-6.46 8.6c-.93.44-2.28.43-3.17 0a3.15 3.15 0 0 1-1.14-.94c-.32-.42-.57-.93-.74-1.53-.18-.6-.27-1.3-.27-2.07 0-.76.09-1.44.27-2.07.18-.6.42-1.11.74-1.53.32-.4.7-.72 1.16-.95.45-.23.98-.34 1.58-.34.59 0 1.12.11 1.58.33.46.23.84.54 1.16.94.32.42.57.94.74 1.53.18.62.27 1.32.27 2.09 0 .77-.09 1.47-.27 2.07-.18.6-.42 1.11-.74 1.53-.32.4-.71.71-1.17.94z"/><path class="st1" d="M184.22 46.47h-6.68V6.41h-35.35V8.4c0 3.73-.07 7.29-.18 10.68-.13 3.4-.44 6.69-.96 9.88-.51 3.19-1.28 6.34-2.32 9.43-1.03 3.1-2.03 4.95-3.85 8.08h-6.19V66.2h13.98v-8.16h29.72v8.16h7.02c3.81 0 6.9-3.09 6.9-6.9V48.56c0-1.16-.94-2.09-2.09-2.09zm-21.09 0h-14.7c1.23-2.21 1.81-3.33 2.62-5.9.81-2.59 1.47-5.24 1.96-7.96.49-2.73.86-5.49 1.1-8.3.17-2 .32-3.1.41-4.52.08-1.1.98-1.96 2.08-1.96h6.52v28.64z"/><path d="M63.79 17.8v30.54c0 .11-.02.22-.04.31-.03.1-.08.19-.13.28-.03.06-.08.11-.13.16-.19.19-.44.31-.72.31H48.68c-.57 0-1.02.48-1.02 1.07v14.6c0 .6-.46 1.07-1.03 1.07H17.17c-.57 0-1.02-.47-1.02-1.07v-14.6c0-.59-.46-1.07-1.03-1.07H1.03c-.57 0-1.02-.47-1.02-1.06V17.8c0-.59.46-1.06 1.02-1.06h14.08c.57 0 1.03-.47 1.03-1.07V1.07C16.15.48 16.6 0 17.17 0h29.45c.57 0 1.03.48 1.03 1.07v14.6c0 .59.46 1.07 1.02 1.07h14.09c.28 0 .53.12.72.31a1.01 1.01 0 0 1 .26.44c.03.09.05.2.05.31z" style="fill:#00b8f1"/><circle cx="31.9" cy="32.27" r="14.3" style="fill:#fff"/><path class="st0" d="M85.62 16.78c-.77 5.55-3.34 10.65-7.11 14.44-.14.14-.28.29-.43.43-.53.52-1.08 1-1.67 1.46-.11.09-.23.17-.34.26-2.64 1.97-5.86 3.35-9.39 4-1.41.26-2.65.4-4.15.4-7.35 0-9.66-3.21-13.44-4.57a7.103 7.103 0 0 0-3.49-.93h-.01c-.28 0-.56.02-.84.06-.17.01-.34.03-.5.07-.14.03-.27.06-.41.1a7.095 7.095 0 0 0-5.18 5.25H24.24s.25-2.5.83-4.54c1.51-5.47 5.79-9.97 11.42-12.35 1.49-.63 3.07-1.11 4.72-1.42 1.4-.26 2.86-.4 4.35-.4 6.82 0 10.35 3.17 13.81 4.55.02.01.04.02.06.02.39.16.79.3 1.19.4l.42.09c.2.05.41.08.62.09.22.03.44.04.67.04.21 0 .42-.01.63-.03.19-.02.37-.04.55-.08a5.054 5.054 0 0 0 .79-.19c2.37-.65 4.24-2.53 4.91-4.9.18-.62.27-1.38.27-2.05 0-.07 0-.13-.01-.2h16.15z"/><path class="st1" d="M52.74 39.42c0 3.95-3.2 7.15-7.15 7.15-3.94 0-7.14-3.2-7.14-7.15 0-.58.07-1.14.21-1.67.02-.11.05-.21.08-.31a7.095 7.095 0 0 1 5.1-4.94c.14-.04.27-.07.41-.1.16-.04.33-.06.5-.07.28-.04.56-.06.84-.06h.01c1.27.01 2.46.34 3.49.93a7.097 7.097 0 0 1 3.65 6.22z"/><g><path class="st1" d="M125.62 53.56v12.53h-13.96V58h-27.3V46.46l20.02-40.05h16.15l-19.7 40.05h11.28V35.22h13.52v18.34z"/></g></svg>