<?xml version="1.0" encoding="UTF-8"?>
<svg id="Layer_1" data-name="Layer 1" xmlns="http://www.w3.org/2000/svg" viewBox="0 0 30 42.86">
  <defs>
    <style>
      .cls-1 {
        fill: #fff;
      }

      .cls-2 {
        fill: #125096;
      }

      .cls-3 {
        fill: #ec3752;
      }
    </style>
  </defs>
  <path class="cls-2" d="M15,0C6.71,0,0,6.71,0,15c0,3.24,1.05,6.95,2.81,9.43l12.19,18.43,12.19-18.43c1.76-2.48,2.81-6.14,2.81-9.43C30,6.71,23.29,0,15,0h0Z"/>
  <circle class="cls-1" cx="15" cy="15.05" r="12.73"/>
  <g>
    <path class="cls-3" d="M25.32,16.17h-1.41V7.72h-7.46v.42c0,.79-.01,1.54-.04,2.25-.03,.72-.09,1.41-.2,2.09-.11,.67-.27,1.34-.49,1.99-.22,.65-.43,1.04-.81,1.71h-1.31v4.16h2.95v-1.72h6.27v1.72h1.48c.8,0,1.46-.65,1.46-1.46v-2.27c0-.24-.2-.44-.44-.44h0Zm-4.45,0h-3.1c.26-.47,.38-.7,.55-1.25,.17-.55,.31-1.11,.41-1.68,.1-.58,.18-1.16,.23-1.75,.04-.42,.07-.65,.09-.95,.02-.23,.21-.41,.44-.41h1.38v6.05h0Z"/>
    <path class="cls-3" d="M12.95,17.67v2.64h-2.95v-1.71H4.24v-2.44L8.47,7.72h3.41l-4.16,8.45h2.38v-2.37h2.85v3.87h0Z"/>
  </g>
</svg>