<?xml version="1.0" encoding="utf-8"?>
<!-- Generator: Adobe Illustrator 26.2.1, SVG Export Plug-In . SVG Version: 6.00 Build 0)  -->
<svg version="1.1"
	 id="svg4" inkscape:version="0.92.3 (2405546, 2018-03-11)" xmlns:cc="http://creativecommons.org/ns#" xmlns:dc="http://purl.org/dc/elements/1.1/" xmlns:inkscape="http://www.inkscape.org/namespaces/inkscape" xmlns:rdf="http://www.w3.org/1999/02/22-rdf-syntax-ns#" xmlns:sodipodi="http://sodipodi.sourceforge.net/DTD/sodipodi-0.dtd" xmlns:svg="http://www.w3.org/2000/svg"
	 xmlns="http://www.w3.org/2000/svg" xmlns:xlink="http://www.w3.org/1999/xlink" x="0px" y="0px" viewBox="0 0 191.4 197"
	 style="enable-background:new 0 0 191.4 197;" xml:space="preserve">
<style type="text/css">
	.st0{fill-rule:evenodd;clip-rule:evenodd;fill:#EAF4FD;}
</style>
<path id="path2" inkscape:connector-curvature="0" sodipodi:nodetypes="sssccsssccccccsssccccccssssssscss" class="st0" d="
	M110.6,197h45.8c19.1,0,34.9-15.9,34.9-35.1v-18.1v-27.9V63.3c0-7.1-6-13.1-13.1-13.1c-7.1,0-13.1,6-13.1,13.1v17.5H157h-5.5h-40.4
	c-29.5,0.3-35,15.6-34.9,36.6v44.4C75.7,181.1,91,197,110.6,197L110.6,197z M102.5,115.4c0-4.4,3.8-8.2,8.2-8.2h39.8h6.5h7.6v8.2v6
	v21.9v18.6c0,4.4-3.8,8.2-8.2,8.2h-45.8c-4.4,0-8.2-3.8-8.2-8.2L102.5,115.4z M133.6,152.1c-7.1,0-13.1-6-13.1-13.1
	c0-7.7,6-13.7,13.1-13.1c7.1,0,13.1,6,13.1,13.1C146.6,146,140.6,152.1,133.6,152.1z"/>
<g id="layer1" transform="translate(0,20)" inkscape:groupmode="layer" inkscape:label="Layer 1">
</g>
<g id="layer2" transform="translate(0,20)" inkscape:groupmode="layer" inkscape:label="Layer 2">
	<path id="path2-2" inkscape:connector-curvature="0" sodipodi:nodetypes="sssccsssccccccsssccccccssssssscss" class="st0" d="
		M80.7-20H34.9C15.8-20,0-4.1,0,15.1v18.1v27.9v52.6c0,7.1,6,13.1,13.1,13.1s13.1-6,13.1-13.1V96.2h8.2h5.5h40.4
		c29.5-0.3,35-15.6,34.9-36.6V15.1C115.6-4.1,100.4-20,80.7-20z M88.9,61.6c0,4.4-3.8,8.2-8.2,8.2H40.9h-6.5h-7.6v-8.2v-6V33.7V15.1
		c0-4.4,3.8-8.2,8.2-8.2h45.8c4.4,0,8.2,3.8,8.2,8.2V61.6z M57.8,24.9c7.1,0,13.1,6,13.1,13.1c0,7.7-6,13.7-13.1,13.1
		c-7.1,0-13.1-6-13.1-13.1C44.7,31,50.7,24.9,57.8,24.9z"/>
</g>
</svg>
