<?xml version="1.0" encoding="utf-8"?>
<!-- Generator: Adobe Illustrator 26.2.1, SVG Export Plug-In . SVG Version: 6.00 Build 0)  -->
<svg version="1.1" id="Слой_1" xmlns="http://www.w3.org/2000/svg" xmlns:xlink="http://www.w3.org/1999/xlink" x="0px" y="0px"
	 viewBox="0 0 58.6 58.6" style="enable-background:new 0 0 58.6 58.6;" xml:space="preserve">
<style type="text/css">
	.st0{fill:#EAF4FD;}
</style>
<path class="st0" d="M52.4,11.4c1.4,1.8,2.5,3.8,3.5,5.8L29.3,36.9l-11.2-7v-8.4l11.1,7L52.4,11.4z"/>
<path class="st0" d="M6.8,29.3c0-0.4,0-0.8,0.1-1.2l-6.8-0.3c0,0.5-0.1,1-0.1,1.4C0,37.3,3.3,44.6,8.6,50l4.8-4.8
	C9.3,41.1,6.8,35.5,6.8,29.3L6.8,29.3z"/>
<path class="st0" d="M29.3,6.8c0.4,0,0.8,0,1.2,0.1l0.3-6.8c-0.5,0-1-0.1-1.4-0.1c-8.1,0-15.4,3.3-20.7,8.6l4.8,4.8
	C17.4,9.3,23.1,6.8,29.3,6.8L29.3,6.8z"/>
<path class="st0" d="M29.3,51.8c-0.4,0-0.8,0-1.2-0.1l-0.3,6.8c0.5,0,1,0.1,1.4,0.1c8.1,0,15.4-3.3,20.7-8.6l-4.8-4.8
	C41.1,49.3,35.5,51.8,29.3,51.8L29.3,51.8z"/>
<path class="st0" d="M41.9,10.7l5.7-4.2c-5-4-11.4-6.5-18.4-6.5v6.8C34,6.8,38.4,8.3,41.9,10.7L41.9,10.7z"/>
<path class="st0" d="M58.6,29.3c0-1.8-0.2-3.5-0.5-5.3l-6.3,4.7v0.6c0,6.6-2.9,12.6-7.4,16.7l4.6,5C54.8,45.7,58.6,37.9,58.6,29.3
	L58.6,29.3z"/>
<path class="st0" d="M29.3,51.8c-6.6,0-12.6-2.9-16.7-7.4l-5,4.6c5.4,5.9,13.1,9.6,21.7,9.6L29.3,51.8z"/>
<path class="st0" d="M14.2,12.6l-4.6-5C3.7,13,0,20.7,0,29.3h6.8C6.8,22.7,9.6,16.7,14.2,12.6L14.2,12.6z"/>
</svg>
