<svg xmlns="http://www.w3.org/2000/svg" viewBox="0 0 401 402" style="enable-background:new 0 0 401 402" xml:space="preserve" fill="#f7fbfe"><path d="M401 111.29c0-42.57-34.56-77.13-77.13-77.13-42.65 0-77.2 34.56-77.2 77.13 0 31.68 19.06 58.9 46.34 70.76V244c.99 64 .99 98-75.01 98s-75.76-34-75.76-98.04c53.61-12.41 66.51-56.22 71.24-81.18l.69-3.49v-92.2c5.54-7.05 8.83-15.93 8.83-25.59C223 18.58 204.42 0 181.5 0S140 18.58 140 41.5c0 10.18 3.66 19.5 9.75 26.72v82.43c-2.88 8.02-7.77 30.25-37.23 30.25-28.44 0-36.05-21-38.72-29.63V67.55C79.56 60.43 83 51.37 83 41.5 83 18.58 64.42 0 41.5 0S0 18.58 0 41.5c0 9.97 3.51 19.13 9.38 26.28v91.03l.48 3.01c4.12 25.17 17.06 69.46 70.67 82.07C80.53 308 79.61 402 218 402c138 0 138-94 136.72-158v-61.95c27.22-11.93 46.28-39.08 46.28-70.76zm-77.13 29.21c-16.11 0-29.21-13.09-29.21-29.21 0-16.04 13.1-29.14 29.21-29.14 16.04 0 29.14 13.1 29.14 29.14 0 16.12-13.1 29.21-29.14 29.21z"/></svg>