<svg id="Layer_1" data-name="Layer 1" xmlns="http://www.w3.org/2000/svg" viewBox="0 0 400.03 361.39"><defs><style>.cls-1{fill:#f7fbfe}</style></defs><path class="cls-1" d="M400.03 275.7v85l-64.28.08V338.4l-273.55.48-.18 21.82-61.11.7-.88-234.7c0-36-2-62 24.69-93.25C38.05 17.85 63.99 0 107.9 0c61.15 0 89.63 44.08 97.6 71.26h20.24c2.87 0 5.19 2.33 5.19 5.19v51.77c0 2.87-2.33 5.19-5.19 5.19H122.59c-2.87 0-5.19-2.33-5.19-5.19V76.45c0-2.87 2.33-5.19 5.19-5.19h12.27c-1.82-8.57-15.25-15.37-27.82-14.57-23.87 1.53-45 11-45 67l-.53 152.53 338.53-.53z"/><path class="cls-1" d="M398.03 195.47v55.84a6.32 6.32 0 0 1-6.32 6.32H194.09c-9.09 0-16.46-7.37-16.46-16.46v-29.25c0-9.09 7.37-16.46 16.46-16.46h203.94z"/><circle class="cls-1" cx="121.18" cy="223.49" r="33.6"/></svg>