<svg data-name="Layer 1" xmlns="http://www.w3.org/2000/svg" viewBox="0 0 403.54 367"><path d="M388.43 162.81c-11.57-14.51-28.12-23.64-46.54-25.68-18.42-2.1-36.57 3.12-51.08 14.68-12.64 10.09-21.2 24.04-24.6 39.74l-27.89 11.34-31.01-41.1 15.93-23.02c.62.06 1.25.06 1.87.06 8.96 0 17.97-1.76 26.36-5.16 8.45-3.46 16.27-8.62 23.07-15.48 26.93-27.27 26.59-71.32-.62-98.19C260.71 6.97 243.24-.06 224.65 0c-18.54.11-35.88 7.43-48.92 20.63-13.04 13.21-20.18 30.67-20.01 49.26.11 17.35 6.52 33.68 18.2 46.37L64.9 273.92 1.91 324.15c-2.21 1.76-2.55 4.99-.79 7.2l26.87 33.73c1.76 2.21 4.99 2.55 7.2.79l58.33-46.54 183.05-74.38c1.02 1.53 2.1 3 3.29 4.48 13.66 17.12 33.9 26.08 54.31 26.08 15.19 0 30.5-4.93 43.26-15.08 29.93-23.92 34.86-67.69 11-97.62zM213.65 58.11c3.06-3.06 7.09-4.76 11.39-4.76h.06c4.31 0 8.28 1.64 11.34 4.65 3.06 3 4.76 7.03 4.76 11.34v.23c0 4.19-1.64 8.16-4.65 11.17-6.24 6.29-16.44 6.35-22.73.17-3.06-3.06-4.76-7.09-4.76-11.4-.06-4.25 1.59-8.33 4.59-11.39zM155.6 236.57l28.35-41.04 17.01 22.56-45.35 18.48zm188.55-17.86c-6.92 5.5-17.06 4.37-22.62-2.55-2.66-3.34-3.85-7.6-3.4-11.85.51-4.25 2.61-8.11 5.95-10.77 2.89-2.27 6.41-3.51 10.03-3.51.57 0 1.19.06 1.81.11 4.25.45 8.11 2.61 10.77 5.95 5.56 6.92 4.37 17.06-2.55 22.62z" style="fill:#f7fbfe"/></svg>