<svg id="Layer_1" data-name="Layer 1" xmlns="http://www.w3.org/2000/svg" viewBox="0 0 388.99 388.99"><defs><style>.cls-1{fill:#f7fbfe}</style></defs><path class="cls-1" d="M194.49 0C87.08 0 0 87.08 0 194.49s87.08 194.49 194.49 194.49 194.49-87.08 194.49-194.49S301.91 0 194.49 0zm-15.03 317.3c-57.14-6.8-102.71-53.59-108.11-110.88-7.43-78.78 59.67-144.53 138.95-134.63 57.44 7.17 102.92 54.79 107.48 112.5 1.57 19.95-1.49 38.93-8.41 56.03H147.3a9.18 9.18 0 0 0-9.18 9.18v26.69a9.18 9.18 0 0 0 9.18 9.18h130.99c-25.38 23.45-60.69 36.46-98.82 31.93z"/><rect class="cls-1" x="138.09" y="179.34" width="98.61" height="45.05" rx="9.34" ry="9.34"/><circle class="cls-1" cx="278.95" cy="201.86" r="23.3"/></svg>