<svg xmlns="http://www.w3.org/2000/svg" viewBox="0 0 450.16 367.98" style="enable-background:new 0 0 450.16 367.98" xml:space="preserve" fill="#f7fbfe"><circle cx="183.99" cy="189.96" r="31.57"/><path d="M364.04 222.07h80.2c.32 0 .63-.03.94-.08a5.8 5.8 0 0 0 3.9-2.47c.68-.97 1.08-2.16 1.08-3.43v-59.1H366C352.96 68.2 276.43 0 184.02 0 82.38 0 0 82.38 0 183.96 0 285.6 82.38 367.98 184.02 367.98c56.19 0 106.53-25.24 140.25-64.99h125.81l.08-64.71h-90.37l.09-.29c1.63-5.23 3.04-10.52 4.16-15.92zm-75.15 16.21H123.66v47.26C89.02 264.96 65.8 227.1 65.8 183.96c0-65.15 53.01-118.16 118.22-118.16 55.87 0 102.81 38.97 115 91.19h-50.83c-.73.13-1.43.3-2.11.5-5.34 1.58-9.05 5.37-9.05 11.63v37.45c0 6.26 3.71 11.66 9.05 14.1a15.477 15.477 0 0 0 6.44 1.4h43.31c-1.91 5.62-4.18 11.01-6.94 16.21z"/></svg>