<svg xmlns="http://www.w3.org/2000/svg" viewBox="0 0 452.26 404" style="enable-background:new 0 0 452.26 404" xml:space="preserve" fill="#f7fbfe"><path d="M441.3 300.5c-.82-1.42-7.93-13.89 4.87-25.42l-32.91-36.58c-34.45 31-24.17 70.91-13.67 88.08.93 1.42 8.47 13.94-2.02 23.4-5.8 5.25-9.35 4.87-10.83 4.76-4.1-.44-8.86-3.06-13.23-6.45 11.81-20.39 11.48-42.81 8.53-55.17 0 0-.91-5.74-1.8-7.44-9.07-17.17-52-57.68-52-57.68l-2.54-28.29a26.825 26.825 0 0 0-6.76-15.52l-45.87-51.1-15.86 2.24c-4.7.66-46.97 7.22-78.4 34.45-32.75 28.27-41.55 71.79-42.43 76.65l-2.68 14.6 44.72 49.59c3.88 4.3 9.04 7.23 14.71 8.35l28 5.54s35.85 47.27 52.49 57.3c1.9 1.14 18.54 4.7 29.74 4.7 9.24 0 20.61-1.37 32.2-5.96 10.5 9.79 26.46 21 45.87 23.07 1.97.22 4.05.38 6.34.38 11.86 0 27.39-3.61 42.76-17.5 33.03-29.79 21.33-69.6 10.77-86zm-136.9 25.86-52.21-57.08-28.87-5.66a23.24 23.24 0 0 1-12.86-7.3l-10.92-12.14c3.39-9.08 9.29-20.89 18.59-28.92 9.46-8.2 22.42-13.61 32.81-16.84l10.67 11.88c3.37 3.75 5.43 8.49 5.88 13.51l2.64 29.5 53.36 59.21c-.49 2.84-1.75 6.29-4.87 8.91-4.33 3.73-9.9 4.77-14.22 4.93zM75.84 217.42c-.31-2.56-7.06-63.11 44.69-109.67 52.21-46.98 115.96-30.25 118.63-29.52l-12.97 47.47c-1.49-.38-40.86-10.04-72.74 18.64-32.24 29-28.89 65.79-28.73 67.35l-48.88 5.73z"/><path d="M.6 218.22c-.46-3.97-10.39-97.96 72.45-169.16 83.41-71.7 172.08-44.02 175.8-42.8l-15.21 46.79c-2.54-.78-66.69-19.83-128.52 33.32C41.9 140.72 49.39 211.8 49.47 212.52L.6 218.22z"/></svg>