<?xml version="1.0" encoding="UTF-8"?>
<svg id="Layer_1" data-name="Layer 1" xmlns="http://www.w3.org/2000/svg" viewBox="0 0 56.66 100.25">
  <defs>
    <style>
      .cls-1 {
        fill: #e1f4fd;
      }
    </style>
  </defs>
  <path class="cls-1" d="M114.13,48.81c-9.51-14.4-19.99-11.8-34.35-16.31-8.39-2.63-13.86-26.68-23.97-30.07C45.71-.95,32.65-.44,15.29,30.73-2.06,61.92-1.61,77.19,2.05,85.29c3.66,8.1,18.27,14.19,28.65,14.66,10.37,.46,42.7-2.83,62.51-10.84,25.66-10.35,30.44-25.92,20.93-40.31Zm-46.9,23.12c-8.16,2.89-21.54,3.92-25.85,3.67-4.3-.25-10.41-2.66-11.97-5.76-1.58-3.1-1.87-8.89,5.11-20.6,6.98-11.7,12.4-11.79,16.61-10.44s8.45,6.64,12.01,8.51c5.51,2.86,8.45,3.95,12.49,9.48,4.04,5.52,2.17,11.39-8.4,15.14Z"/>
</svg>