<?xml version="1.0" encoding="UTF-8"?>
<svg id="Layer_1" data-name="Layer 1" xmlns="http://www.w3.org/2000/svg" viewBox="0 0 66.84 100.25">
  <defs>
    <style>
      .cls-1 {
        fill: #e1f4fd;
      }
    </style>
  </defs>
  <path class="cls-1" d="M96.53,35.01c-7.07-18.72-7.84-23.7-18.44-30.77C67.49-2.82,53.78,.74,29.75,15.94,5.72,31.13-.34,44.56,1.41,56.9c1.3,9.11,7.14,14.86,26.57,25.47,19.44,10.6,40.93,23.28,60.71,13.75,19.79-9.54,14.91-42.37,7.84-61.11Zm-29.14,34.47c-8.32,4.01-17.36-1.33-25.54-5.79-8.18-4.46-10.64-6.89-11.19-10.72-.73-5.18,1.82-10.85,11.93-17.23,10.11-6.4,15.88-7.89,20.34-4.92,4.46,2.98,4.79,5.07,7.77,12.95,2.97,7.89,5.02,21.7-3.31,25.72Z"/>
</svg>