<?xml version="1.0" encoding="UTF-8"?>
<svg id="Layer_1" data-name="Layer 1" xmlns="http://www.w3.org/2000/svg" viewBox="0 0 58.71 104.19">
  <defs>
    <style>
      .cls-1 {
        fill: #e1f4fd;
      }
    </style>
  </defs>
  <path class="cls-1" d="M43.92,73.59c-4.79,2.63-10.8,.31-12.57-4.86-.9-2.64-1.89-5.52-2.74-8.02-1.41-4.15-.73-8.72,1.83-12.27l11.32-15.75c2.34-3.25,7.01-3.66,9.89-.89,5.68,5.49,14.49,14,19.91,19.25,2.39,2.32,1.86,6.28-1.05,7.9,0,0-16,8.81-26.6,14.64Zm51.3-.7c9-9.88,9.15-25.76-1.14-35.74l-29.82-28.94C53.72-2,37-1.25,27.38,9.31c-.66,.73-1.29,1.5-1.88,2.32L5.67,39.16C.79,45.93-.5,54.65,2.22,62.55l8.37,24.3c5.2,15.11,22.78,21.86,36.76,14.11l41.29-22.88c2.55-1.41,4.75-3.17,6.58-5.18h0Z"/>
</svg>