<?xml version="1.0" encoding="UTF-8"?>
<svg id="Layer_1" data-name="Layer 1" xmlns="http://www.w3.org/2000/svg" viewBox="0 0 59.71 103.95">
  <defs>
    <style>
      .cls-1 {
        fill: #e1f4fd;
      }
    </style>
  </defs>
  <path class="cls-1" d="M102.99,45.73c-1.41-4.34-4.04-8.23-10.68-17.53-4.1-5.73-8.64-11.11-13.52-15.98-3.81-3.81-7.51-6.61-11.32-8.59-4.66-2.4-9.62-3.62-14.75-3.62-7.62,0-13.21,3.62-17.7,6.54-.44,.29-.85,.56-1.26,.82-.2,.13-.74,.45-1.29,.79-3.83,2.31-10.96,6.62-15.96,10.83-.81,.67-3.7,3.14-6.71,6.58C3.81,32.41,.53,39.52,.07,46.69c-.4,6.16,.82,11.61,3.83,17.13,1.88,3.44,4.21,6.54,8.07,11.68l.05,.07c.98,1.31,1.99,2.7,2.99,4.08,2.94,4.03,5.97,8.21,9.36,11.88,3.69,3.99,9.6,9.54,18.32,11.57,2.43,.57,4.95,.85,7.5,.85,10.73,0,21.58-4.76,35.21-15.44,7.64-5.98,13.09-12.84,16.18-20.35,3.14-7.62,3.64-15.58,1.41-22.43Zm-34.78,20.85c-10.02,7.85-15.33,9.5-18.02,9.5-.44,0-.82-.04-1.19-.13-2.67-.62-7.96-7.89-11.46-12.7-1.06-1.46-2.14-2.94-3.24-4.4l-.05-.07c-6.08-8.12-6.48-8.85-6.39-10.29,.16-1.52,3.35-5.52,6.42-8.07l.08-.07c3.37-2.84,9.55-6.58,12.52-8.37,.81-.49,1.45-.88,1.83-1.12,.49-.32,.99-.64,1.47-.95,.99-.64,2.39-1.55,3.22-1.99,.93,.18,2.61,.93,5.67,4,3.78,3.78,7.33,7.98,10.58,12.52,1.77,2.48,5.8,8.13,6.83,10.03,.15,1.55-1.02,6.42-8.29,12.12Z"/>
</svg>