<?xml version="1.0" encoding="UTF-8"?>
<svg id="Layer_1" data-name="Layer 1" xmlns="http://www.w3.org/2000/svg" viewBox="0 0 310 218.17">
  <path d="M297.92,18.73C286.73,5.43,266.07,0,226.61,0H83.39C43.03,0,22.02,5.78,10.87,19.94,0,33.75,0,54.09,0,82.25v53.67c0,54.55,12.9,82.25,83.39,82.25H226.61c34.22,0,53.18-4.79,65.44-16.53,12.58-12.04,17.95-31.69,17.95-65.72v-53.67c0-29.7-.84-50.16-12.08-63.52Zm-98.9,97.77l-65.04,33.99c-1.45,.76-3.04,1.14-4.63,1.14-1.8,0-3.59-.48-5.18-1.45-2.99-1.81-4.82-5.06-4.82-8.55V73.86c0-3.49,1.82-6.73,4.81-8.55,2.99-1.81,6.7-1.94,9.8-.33l65.04,33.77c3.31,1.72,5.39,5.13,5.39,8.86,0,3.73-2.06,7.15-5.37,8.88Z"/>
</svg>