<?xml version="1.0" encoding="UTF-8"?>
<svg id="Layer_1" data-name="Layer 1" xmlns="http://www.w3.org/2000/svg" viewBox="0 0 92.89 93.67">
  <defs>
    <style>
      .cls-1 {
        fill: #fff;
        fill-rule: evenodd;
      }

      .cls-2 {
        fill: #d2d700;
      }
    </style>
  </defs>
  <path class="cls-2" d="M24.01,4.03c17.19-7.75,31.01-2.36,40.79,0s21.57,10.45,24.94,18.54c3.37,8.09,7.42,26.29-7.75,48.2-15.17,21.91-33.37,24.94-40.45,21.91C34.46,89.65,1.76,72.45,.08,46.84-1.61,21.22,24.01,4.03,24.01,4.03Z"/>
  <path class="cls-1" d="M46.44,70.36c12.99,0,23.52-10.53,23.52-23.52s-10.53-23.52-23.52-23.52-23.52,10.53-23.52,23.52,10.53,23.52,23.52,23.52Zm0-41.03c1.15,0,2.09,.94,2.09,2.09v11.2c1.55,.77,2.61,2.37,2.61,4.22,0,.53-.09,1.03-.25,1.5l3.29,3.29c.82,.82,.82,2.14,0,2.96-.82,.82-2.14,.82-2.96,0l-3.29-3.29c-.47,.16-.98,.25-1.5,.25-2.6,0-4.7-2.11-4.7-4.7,0-1.85,1.06-3.45,2.61-4.22v-11.2c0-1.15,.94-2.09,2.09-2.09h0Z"/>
</svg>