<?xml version="1.0" encoding="UTF-8"?>
<svg id="Layer_1" data-name="Layer 1" xmlns="http://www.w3.org/2000/svg" viewBox="0 0 96.97 94.24">
  <defs>
    <style>
      .cls-1 {
        fill: #fff;
      }

      .cls-2 {
        fill: #d2d700;
      }
    </style>
  </defs>
  <path class="cls-2" d="M.27,53.59C-1.4,41.82,4.38,28.99,27.32,14.49,50.26-.02,63.34-3.42,73.46,3.33s10.86,11.49,17.61,29.37c6.75,17.88,11.4,49.22-7.49,58.32-18.89,9.11-39.4-3.01-57.95-13.13C7.08,67.78,1.5,62.28,.27,53.59Z"/>
  <g>
    <path class="cls-1" d="M69.58,41.03h-5.15s-2.09,0-2.09,0h-3.98c-.28,0-.5-.27-.42-.54,.46-1.62,.5-3.38,.5-5.03,0-.92,.04-1.96-.06-2.96-.1-1.02-.36-2-.96-2.78-.67-.86-1.66-1.5-2.76-1.5-2.56,0-2.97,2.51-3.21,4.54-.28,2.37-.39,4.83-1.44,7.01-.73,1.53-1.77,2.85-3.41,3.49-1.26,.5-2.18,.88-3.5,1.14-.2,.04-.35,.22-.35,.43v16.58c0,.24,.2,.44,.44,.44h4.59c.14,0,.27,.07,.35,.18,.9,1.21,2.35,2,3.98,2h7.14s5.18,0,5.18,0h2.05c2.1,0,3.81-1.72,3.81-3.81h0c0-.54-.13-1.06-.36-1.51-.09-.18-.04-.4,.11-.53,.78-.62,1.28-2.03,1.28-3.1v-.44c0-.54-.13-1.06-.36-1.51-.09-.18-.04-.4,.11-.53,.78-.62,1.28-1.57,1.28-2.64v-.44c0-.54-.13-1.06-.36-1.51-.09-.18-.04-.4,.11-.53,.78-.62,1.28-1.57,1.28-2.64h0c0-2.1-1.72-3.81-3.81-3.81Z"/>
    <rect class="cls-1" x="31.57" y="42.53" width="8.85" height="21.01" rx="1.62" ry="1.62"/>
  </g>
</svg>