<?xml version="1.0" encoding="UTF-8"?>
<svg id="Layer_1" data-name="Layer 1" xmlns="http://www.w3.org/2000/svg" viewBox="0 0 93.24 93.92">
  <defs>
    <style>
      .cls-1 {
        fill: #fff;
      }

      .cls-2 {
        fill: #ec3752;
      }
    </style>
  </defs>
  <path class="cls-2" d="M47.39,.01c11.68-.36,23.6,6.67,35.31,30.66,11.71,23.99,13.62,37.15,5.93,46.31-7.69,9.17-12.41,9.38-30.61,14.05-18.2,4.67-49.35,5.84-56.21-13.61-6.87-19.45,7.19-38.19,19.08-55.23C32.78,5.14,38.76,.28,47.39,.01Z"/>
  <g>
    <path class="cls-1" d="M62.46,53.79s-.71-.22-1.72-.57c.16,.52,.27,1.06,.32,1.62,1.61,.36,2.81,1.8,2.81,3.51,0,1.98-1.61,3.6-3.6,3.6s-3.6-1.61-3.6-3.6c0-1.68,1.16-3.09,2.72-3.49-.1-.91-.41-1.75-.87-2.48-1.3-.53-2.66-1.17-3.6-1.84,0,.05,0,.1,0,.15-.01,.67-.09,1.49-.19,2.33-.31,2.52-.87,5.31-.87,5.31-.75-1.24-1.42-2.05-2.02-2.58-.73-.64-1.34-.84-1.82-.84-.06,0-.12,0-.17,0-.6,.06-.96,.43-1.06,.55,3.28-4,4.45-7.42,4.55-7.73-.02-.25-.03-.52-.01-.8,0,0-.02-.32-.05-.32,0,0,0,0,0,0,.94-1.21,1.7-2.21,2.21-3.61,.86-.87,1.31-2.97,1.31-2.97,.72-2.02,.27-2.8-.07-3.09,.52-1.69,1.65-6.45-1.04-9.48,0,0-1.03-2.28-5.18-3.11,0,0-1.6-.65-2.24-2.33,0,0-1.43,.18-1.43,1.43l-.69-.28-.64,.45-.74-.45s-.05-.02-.16-.02c-.14,0-.38,.03-.74,.15,0,0-5.4,2.08-6.78,6.36,0,0-.77,1.82,.17,7.12-.23,.09-1.23,.64-.3,3.24,0,0,.4,1.9,1.18,2.83,.44,1.36,1.11,2.68,1.93,3.84,0,0,0,0-.01-.01,0,0,.1,.51,0,1.22,.19,.52,1.74,4.57,4.46,7.62-.14-.15-.44-.39-.88-.46-.09-.02-.18-.03-.28-.03-.44,0-.99,.17-1.65,.7-.64,.52-1.37,1.37-2.19,2.73,0,0-.68-3.34-.95-6-.07-.64-.11-1.24-.12-1.75,0-.1,0-.2,0-.29-1.11,.81-2.84,1.58-4.39,2.18-.28,.64-.43,1.35-.46,2.09,.32,.19,.58,.47,.74,.82,1.18,.56,2.23,1.73,3.03,3.41,.13,.28,.15,.6,.05,.89,.48,1.23,.75,2.58,.75,3.72,0,1.59,0,3.09-1.73,3.47-.19,.16-.42,.24-.67,.24h-1.16c-.58,0-1.05-.47-1.05-1.05,.01-.59,.48-1.05,1.05-1.05h1.16c.12,0,.23,.02,.35,.06,.07-.02,.09-.04,.09-.04,.13-.23,.13-1.18,.13-1.63,0-.92-.23-2.03-.63-3.06-.21-.12-.38-.3-.48-.52-.7-1.47-1.65-2.42-2.43-2.42s-1.79,1.03-2.49,2.55c-.11,.25-.31,.45-.56,.57-.37,.99-.57,2.01-.57,2.88,0,.38,0,1.4,.15,1.64h0s.03,.02,.13,.04c.12-.05,.25-.07,.38-.07h1.16c.55,0,1.02,.43,1.05,.99v.03s0,.03,0,.03c0,.58-.47,1.05-1.05,1.05h-1.16c-.23,0-.45-.08-.63-.22-.66-.12-1.13-.42-1.42-.89-.36-.57-.42-1.33-.42-2.61,0-1.12,.26-2.41,.73-3.65-.07-.26-.05-.54,.07-.79,.49-1.07,1.11-1.99,1.8-2.65,.38-.37,.79-.66,1.21-.87,.16-.37,.44-.68,.78-.87,.01-.47,.06-.92,.16-1.37-.79,.27-1.31,.43-1.31,.43-2.4,.92-3.41,2.31-3.41,2.31-2.89,4.28-3.7,9.54-3.91,11.34,0,2.45,10.37,4.44,23.15,4.44s23.15-1.99,23.15-4.44c-.2-1.8-1.01-7.06-3.91-11.34,0,0-1.01-1.39-3.41-2.31h0Zm-4.21,13.03c0,.19-.17,.35-.39,.35h-2.11v2.1c0,.21-.15,.39-.35,.39h-2.08c-.19,0-.35-.17-.35-.39v-2.1h-2.1c-.21,0-.39-.15-.39-.35v-2.08c0-.19,.17-.35,.39-.35h2.1v-2.1c0-.21,.15-.39,.35-.39h2.08c.19,0,.35,.17,.35,.39v2.1h2.1c.21,0,.39,.15,.39,.35v2.08Z"/>
    <path class="cls-1" d="M61.93,58.35c0,.92-.74,1.66-1.66,1.66s-1.66-.74-1.66-1.66,.74-1.66,1.66-1.66,1.66,.74,1.66,1.66"/>
  </g>
</svg>