<?xml version="1.0" encoding="UTF-8"?>
<svg id="Layer_1" data-name="Layer 1" xmlns="http://www.w3.org/2000/svg" viewBox="0 0 98.23 93.69">
  <defs>
    <style>
      .cls-1 {
        fill: #fff;
      }

      .cls-2 {
        fill: #00adee;
      }
    </style>
  </defs>
  <path class="cls-2" d="M62.84,89.62l-33.97,3.9C13.16,95.33-.48,82.78,.01,66.98L1.33,25.11C1.88,7.73,19.05-4.18,35.52,1.38l45.08,15.23c15.26,5.16,22.16,22.84,14.44,36.97l-12.43,22.73c-4.04,7.38-11.41,12.35-19.77,13.31Z"/>
  <path class="cls-1" d="M70.41,41.2c-.29-8.1-7.29-13.54-14.11-13.54-3.85,0-8.53,2.61-10.41,4.07-1.87-1.46-6.12-4.07-9.97-4.07-6.81,0-13.82,5.44-14.11,13.54-.26,7.27,3.76,11.45,4.19,11.89l18.83,18.32c.38,.42,.72,.62,1.14,.62,.37,0,.77-.2,1.14-.62l19.11-18.32c.42-.44,4.45-4.62,4.18-11.89Z"/>
</svg>