<?xml version="1.0" encoding="UTF-8"?>
<svg id="Layer_1" data-name="Layer 1" xmlns="http://www.w3.org/2000/svg" viewBox="0 0 100.96 88.48">
  <defs>
    <style>
      .cls-1 {
        fill: #fff;
      }

      .cls-2 {
        fill: #00adee;
      }
    </style>
  </defs>
  <path class="cls-2" d="M62.4,22.23C54.76,21.33,46.15,1.53,36.92,.25,27.68-1.02,16.53,1.53,6.65,31.16-3.22,60.78-.36,73.84,4.1,80.22c4.46,6.37,18.01,9.24,27,7.96,8.99-1.27,36.26-9.35,52-19.43,20.39-13.06,21.98-27.23,11.47-38.06-10.51-10.83-19.1-6.9-32.18-8.45Z"/>
  <path class="cls-1" d="M67.69,41.89c-.2-.58-.69-.98-1.3-1.06l-12.7-1.63-5.86-11.39c-.28-.54-.83-.87-1.44-.86-.61,.01-1.15,.36-1.41,.91l-5.48,11.58-12.64,2.05c-.6,.1-1.08,.52-1.26,1.1-.18,.58-.01,1.2,.43,1.62l9.32,8.79-1.96,12.66c-.09,.6,.16,1.19,.66,1.54,.5,.35,1.14,.38,1.67,.09l11.24-6.15,11.43,5.77c.24,.12,.49,.18,.74,.17,.33,0,.65-.11,.93-.32,.49-.37,.72-.96,.61-1.56l-2.37-12.58,9.02-9.09c.43-.43,.57-1.06,.37-1.63Z"/>
</svg>