<?xml version="1.0" encoding="UTF-8"?>
<svg id="Layer_1" data-name="Layer 1" xmlns="http://www.w3.org/2000/svg" viewBox="0 0 95.28 94.65">
  <defs>
    <style>
      .cls-1 {
        fill: #fff;
      }

      .cls-2 {
        fill: #ec3752;
      }
    </style>
  </defs>
  <path class="cls-2" d="M13.7,21.48c7.09-5.98,20.06-13.43,22.92-15.25,4.6-2.93,9.19-6.23,11.85-6.23,5.17,0,10.19,2.21,17.27,9.3,7.09,7.09,12.7,14.06,17.13,20.26,4.43,6.2,11.04,15.44,11.88,18.05,1.66,5.09,.22,17.49-16.17,30.34-16.39,12.84-28.68,18.44-38.2,16.22-9.52-2.21-18.49-16.67-28.46-29.95C1.97,50.93-.37,47.83,.05,41.34c.59-9.15,13.66-19.86,13.66-19.86Z"/>
  <path class="cls-1" d="M47.64,26.88c-8.24,0-14.91,6.68-14.91,14.91s14.91,29.97,14.91,29.97c0,0,14.91-21.73,14.91-29.97s-6.68-14.91-14.91-14.91Zm0,21.27c-3.87,0-7.01-3.14-7.01-7.01s3.14-7.01,7.01-7.01,7.01,3.14,7.01,7.01-3.14,7.01-7.01,7.01Z"/>
</svg>